PathFileType	4	(X/Y/Z)	 Jog05.trc
DataRate	CameraRate	NumFrames	NumMarkers	Units	OrigDataRate	OrigDataStartFrame	OrigNumFrames
250	250	11	31	m	250	245	651
Frame#	Time	RASI			LASI			RAIC			LAIC			RTH2			RTB3			RMT1			RMT5			LTH1			LTH2			LTH3			LCAL			LMT1			LMT5			CLAV			STRN			RACR			LACR			RTH1			RTH3			LTB1			LTB2			C7			LPSI			T10			RPSI			LTB3			RTB1			RCAL			RTB2			C_30			
		X1	Y1	Z1	X2	Y2	Z2	X3	Y3	Z3	X4	Y4	Z4	X5	Y5	Z5	X6	Y6	Z6	X7	Y7	Z7	X8	Y8	Z8	X9	Y9	Z9	X10	Y10	Z10	X11	Y11	Z11	X12	Y12	Z12	X13	Y13	Z13	X14	Y14	Z14	X15	Y15	Z15	X16	Y16	Z16	X17	Y17	Z17	X18	Y18	Z18	X19	Y19	Z19	X20	Y20	Z20	X21	Y21	Z21	X22	Y22	Z22	X23	Y23	Z23	X24	Y24	Z24	X25	Y25	Z25	X26	Y26	Z26	X27	Y27	Z27	X28	Y28	Z28	X29	Y29	Z29	X30	Y30	Z30	X31	Y31	Z31	
245	0.9800	-0.478356	0.889658	0.474669	-0.507214	0.903879	0.238552	-0.539928	0.988572	0.523205	-0.571234	0.995080	0.210781	-0.446291	0.722295	0.543055	-0.609022	0.408117	0.460810	-0.778355	0.276791	0.462923	-0.791410	0.295338	0.554643	-0.552618	0.787127	0.193985	-0.493680	0.707690	0.225197	-0.535897	0.611262	0.223953	-0.844127	0.062921	0.366479	-0.623962	0.038824	0.384877	-0.639083	0.042883	0.295739	-0.431628	1.350013	0.347243	-0.419714	1.123311	0.355300	-0.495960	1.413016	0.524706	-0.465762	1.388561	0.168602	-0.535623	0.775474	0.551372	-0.448895	0.621183	0.547968	-0.561627	0.311542	0.363834	-0.594126	0.243572	0.318351	-0.539219	1.453990	0.337464	-0.668586	0.981230	0.353957	-0.639125	1.174951	0.364635	-0.659812	0.971568	0.426151	-0.648839	0.206165	0.372501	-0.472741	0.414116	0.454803	-0.826106	0.483320	0.450213	-0.535012	0.404425	0.509419	-0.356639	0.465513	0.406276	
246	0.9840	-0.462593	0.892335	0.474762	-0.491029	0.905771	0.238509	-0.524569	0.990923	0.522749	-0.554206	0.997700	0.211070	-0.428502	0.727419	0.543078	-0.582975	0.406109	0.460226	-0.746980	0.268063	0.461421	-0.760684	0.285767	0.553223	-0.538247	0.788511	0.194205	-0.481417	0.707748	0.225676	-0.526017	0.612276	0.223913	-0.843216	0.066731	0.366060	-0.623826	0.039044	0.384875	-0.638901	0.042935	0.295792	-0.416120	1.353034	0.348175	-0.403944	1.126326	0.356438	-0.483047	1.415938	0.524912	-0.448654	1.391581	0.169281	-0.519119	0.778485	0.551373	-0.428863	0.626267	0.547456	-0.558794	0.312132	0.363998	-0.591571	0.244431	0.318432	-0.524027	1.456125	0.336910	-0.652307	0.983653	0.353510	-0.623099	1.176830	0.363379	-0.643790	0.974056	0.425704	-0.646874	0.207458	0.372386	-0.447239	0.416930	0.453763	-0.803343	0.472501	0.449680	-0.509138	0.404670	0.508489	-0.332628	0.472760	0.405431	
247	0.9880	-0.446673	0.895268	0.474709	-0.474498	0.907824	0.238392	-0.509036	0.993585	0.522326	-0.537000	1.000519	0.211601	-0.410901	0.732694	0.543056	-0.557583	0.403686	0.458462	-0.715191	0.259481	0.459738	-0.729424	0.276099	0.551709	-0.524046	0.790099	0.194479	-0.469223	0.707994	0.226020	-0.515909	0.613552	0.224363	-0.842018	0.071029	0.365505	-0.623497	0.038915	0.384822	-0.638904	0.042978	0.295610	-0.400670	1.356368	0.349246	-0.388026	1.129666	0.357712	-0.470141	1.419073	0.525085	-0.431604	1.394956	0.170096	-0.502551	0.781734	0.551421	-0.409148	0.631571	0.546708	-0.555822	0.313070	0.363953	-0.589043	0.245533	0.318233	-0.509346	1.458448	0.336988	-0.635902	0.986276	0.353067	-0.606924	1.178835	0.362093	-0.627603	0.976805	0.425251	-0.644734	0.209033	0.372011	-0.422019	0.419643	0.452654	-0.780408	0.461210	0.448932	-0.483452	0.405121	0.507628	-0.309103	0.480292	0.404482	
248	0.9920	-0.430653	0.898500	0.474587	-0.458042	0.910032	0.238236	-0.493438	0.996543	0.521836	-0.519558	1.003523	0.212280	-0.393323	0.738100	0.542985	-0.532024	0.400618	0.458850	-0.682748	0.250796	0.458187	-0.697773	0.266455	0.550023	-0.509929	0.791775	0.194530	-0.457095	0.708423	0.226366	-0.505722	0.615132	0.224646	-0.840660	0.075765	0.364813	-0.623135	0.039023	0.384821	-0.638510	0.043117	0.296012	-0.385218	1.359974	0.350312	-0.371996	1.133363	0.359109	-0.457349	1.422562	0.525232	-0.414653	1.398560	0.170894	-0.485946	0.785316	0.551446	-0.389692	0.637023	0.546076	-0.551850	0.314514	0.364004	-0.586297	0.247281	0.317815	-0.494449	1.460846	0.336934	-0.619318	0.989128	0.352641	-0.590679	1.181058	0.360690	-0.611247	0.979798	0.424836	-0.642295	0.211183	0.371577	-0.397067	0.422391	0.451375	-0.757130	0.449623	0.448239	-0.457743	0.405127	0.506647	-0.286074	0.487978	0.403524	
249	0.9960	-0.414426	0.901892	0.474455	-0.441374	0.912337	0.238003	-0.477943	0.999646	0.521319	-0.501834	1.006461	0.212874	-0.375943	0.743546	0.542758	-0.506314	0.398021	0.457473	-0.650823	0.242382	0.456551	-0.665753	0.256804	0.548408	-0.495835	0.793654	0.194534	-0.445026	0.709124	0.226595	-0.495787	0.616952	0.224860	-0.839003	0.080978	0.363878	-0.622759	0.039118	0.384776	-0.638320	0.043272	0.295919	-0.369740	1.363868	0.351391	-0.355847	1.137540	0.360417	-0.445352	1.426271	0.525311	-0.397640	1.402424	0.171751	-0.469325	0.789133	0.551490	-0.370461	0.642565	0.545396	-0.548435	0.316382	0.363481	-0.583313	0.249446	0.317240	-0.479473	1.463739	0.336726	-0.602585	0.992177	0.352202	-0.574387	1.183403	0.359310	-0.594781	0.983028	0.424384	-0.639667	0.213712	0.370865	-0.372446	0.425016	0.450618	-0.733564	0.437559	0.447358	-0.432442	0.405576	0.505892	-0.263597	0.495800	0.402439	
250	1.0000	-0.398102	0.905554	0.474180	-0.424677	0.914824	0.237655	-0.462287	1.003089	0.520889	-0.483826	1.009543	0.213791	-0.358600	0.749106	0.542513	-0.480733	0.395777	0.456270	-0.617245	0.233947	0.454691	-0.633129	0.247264	0.546624	-0.481589	0.795596	0.194552	-0.432886	0.709996	0.227071	-0.486089	0.619100	0.224873	-0.837007	0.086595	0.362860	-0.622336	0.039213	0.384661	-0.638075	0.043449	0.295767	-0.354292	1.367994	0.352529	-0.339573	1.141917	0.361906	-0.432712	1.430133	0.525256	-0.380791	1.406520	0.172669	-0.452668	0.793021	0.551457	-0.351413	0.648114	0.544807	-0.544833	0.318854	0.362874	-0.579977	0.252157	0.316484	-0.464556	1.466619	0.336542	-0.585603	0.995424	0.351765	-0.557963	1.185940	0.357866	-0.578464	0.986410	0.423809	-0.636803	0.216678	0.370012	-0.347760	0.427780	0.449424	-0.709505	0.425212	0.446488	-0.407377	0.405915	0.505239	-0.241364	0.503482	0.401244	
251	1.0040	-0.381579	0.909369	0.473998	-0.407684	0.917350	0.237489	-0.444980	1.007049	0.520600	-0.465841	1.012899	0.214418	-0.341167	0.754620	0.542342	-0.455155	0.392993	0.455294	-0.584278	0.225567	0.453087	-0.600514	0.237855	0.544854	-0.467367	0.797898	0.194413	-0.420766	0.711154	0.227266	-0.475833	0.621536	0.225247	-0.834657	0.092544	0.361761	-0.621833	0.039290	0.384490	-0.637720	0.043686	0.295512	-0.338889	1.372347	0.353721	-0.323100	1.146660	0.363428	-0.420107	1.434198	0.525164	-0.363998	1.410700	0.173590	-0.435925	0.797081	0.551473	-0.332579	0.653706	0.544182	-0.541107	0.321773	0.362184	-0.576618	0.255304	0.315536	-0.449619	1.469669	0.336480	-0.568514	0.998817	0.351277	-0.541502	1.188620	0.356416	-0.561572	0.990048	0.423362	-0.633445	0.220043	0.368870	-0.323446	0.430308	0.448481	-0.685078	0.412563	0.445573	-0.382243	0.406124	0.504253	-0.220185	0.511441	0.400349	
252	1.0080	-0.365388	0.913557	0.473585	-0.390579	0.920049	0.237235	-0.428395	1.011139	0.520333	-0.447430	1.016214	0.215078	-0.323687	0.760090	0.542143	-0.429475	0.390051	0.454043	-0.550752	0.217502	0.450977	-0.567503	0.228616	0.542979	-0.452791	0.800388	0.194375	-0.408419	0.712577	0.227583	-0.465718	0.624365	0.225251	-0.831845	0.098911	0.360550	-0.620973	0.039430	0.384248	-0.637288	0.043920	0.295259	-0.323503	1.376956	0.354915	-0.306491	1.151581	0.365038	-0.407413	1.438327	0.524886	-0.347260	1.415083	0.174571	-0.419095	0.801343	0.551535	-0.313979	0.659305	0.543597	-0.537181	0.325127	0.361233	-0.572870	0.258785	0.314617	-0.434490	1.472903	0.336559	-0.551243	1.002384	0.350777	-0.524895	1.191432	0.354975	-0.544558	0.993842	0.422905	-0.630062	0.223912	0.367823	-0.299530	0.433031	0.447436	-0.660201	0.399898	0.444485	-0.356926	0.406294	0.502142	-0.198980	0.518987	0.399128	
253	1.0120	-0.349123	0.917455	0.473263	-0.373317	0.922785	0.237171	-0.411644	1.015527	0.520066	-0.429040	1.019859	0.215736	-0.306593	0.765429	0.541832	-0.403771	0.387235	0.452735	-0.516595	0.209408	0.448965	-0.534245	0.219528	0.541147	-0.437863	0.803143	0.194343	-0.395902	0.714280	0.227929	-0.455336	0.627520	0.225211	-0.828560	0.105598	0.359347	-0.620572	0.039209	0.384037	-0.636795	0.044185	0.295005	-0.308150	1.381707	0.356225	-0.289775	1.156612	0.366761	-0.394866	1.442668	0.524600	-0.330501	1.419554	0.175678	-0.402151	0.805724	0.551533	-0.295570	0.664786	0.542999	-0.533380	0.328832	0.360053	-0.568878	0.262581	0.313457	-0.419709	1.476215	0.336757	-0.533839	1.006055	0.350215	-0.508187	1.194376	0.353497	-0.527402	0.997786	0.422345	-0.626289	0.227855	0.366622	-0.275836	0.435623	0.445990	-0.634979	0.386710	0.443552	-0.331751	0.406164	0.501095	-0.178787	0.526635	0.398224	
254	1.0160	-0.332362	0.921881	0.473181	-0.355921	0.925591	0.237109	-0.394744	1.020188	0.519910	-0.410337	1.023186	0.215974	-0.289114	0.770871	0.541624	-0.377337	0.383899	0.450664	-0.482776	0.202017	0.447191	-0.500625	0.210653	0.539202	-0.422532	0.806141	0.194434	-0.383102	0.716201	0.228390	-0.444768	0.631033	0.225022	-0.824757	0.112665	0.358085	-0.619455	0.039235	0.383711	-0.636253	0.044490	0.294713	-0.292845	1.386602	0.357439	-0.272929	1.161943	0.368419	-0.382002	1.446943	0.524066	-0.313724	1.424140	0.176844	-0.385179	0.810163	0.551586	-0.277392	0.670150	0.542429	-0.528597	0.332793	0.359047	-0.564533	0.266589	0.312344	-0.404799	1.479531	0.336854	-0.516334	1.009841	0.349613	-0.491414	1.197361	0.351942	-0.510186	1.001881	0.421805	-0.622095	0.232102	0.365367	-0.252332	0.437957	0.444941	-0.608858	0.373268	0.442280	-0.306932	0.406104	0.499767	-0.158323	0.533544	0.397176	
255	1.0200	-0.315547	0.926443	0.473036	-0.338338	0.928434	0.237250	-0.377654	1.025039	0.519717	-0.391235	1.026833	0.216483	-0.271846	0.776161	0.541350	-0.351830	0.380727	0.449666	-0.448453	0.194584	0.445139	-0.466686	0.201973	0.537193	-0.406798	0.809251	0.194641	-0.370062	0.718378	0.228928	-0.433917	0.634744	0.224749	-0.820611	0.120052	0.357055	-0.618872	0.038955	0.383395	-0.635593	0.044817	0.294323	-0.277581	1.391561	0.358694	-0.256026	1.167296	0.370204	-0.369144	1.451170	0.523545	-0.296941	1.428761	0.178021	-0.368148	0.814650	0.551716	-0.258971	0.675754	0.541845	-0.524977	0.337010	0.357309	-0.559880	0.271004	0.310955	-0.389553	1.482976	0.336701	-0.498633	1.013742	0.349023	-0.474579	1.200442	0.350480	-0.493309	1.006221	0.421128	-0.618506	0.236556	0.364892	-0.229046	0.440241	0.443643	-0.582575	0.360043	0.441344	-0.282180	0.405862	0.498472	-0.139012	0.540504	0.396411	
